<?xml version="1.0" encoding="UTF-8"?>
<svg xmlns="http://www.w3.org/2000/svg" xmlns:xlink="http://www.w3.org/1999/xlink" width="60px" height="60px" viewBox="0 0 60 60" version="1.1">
<g id="surface1">
<path style="fill:none;stroke-width:2.0801;stroke-linecap:butt;stroke-linejoin:miter;stroke:rgb(33.333333%,33.333333%,33.333333%);stroke-opacity:1;stroke-miterlimit:4;" d="M 48.146933 1027.396721 C 48.146933 1040.1815 37.784778 1050.557551 25 1050.557551 C 12.215222 1050.557551 1.853067 1040.1815 1.853067 1027.396721 C 1.853067 1014.611943 12.215222 1004.25442 25 1004.25442 C 37.784778 1004.25442 48.146933 1014.611943 48.146933 1027.396721 Z M 48.146933 1027.396721 " transform="matrix(0.843288,0,0,0.843288,8.9178,-836.363983)"/>
<path style=" stroke:none;fill-rule:nonzero;fill:rgb(33.333333%,33.333333%,33.333333%);fill-opacity:1;" d="M 21.996094 18.386719 C 20.941406 18.386719 20.089844 19.238281 20.089844 20.285156 L 20.089844 39.777344 C 20.089844 40.828125 20.941406 41.683594 21.996094 41.683594 L 35.589844 41.683594 C 36.636719 41.683594 37.488281 40.828125 37.488281 39.777344 L 37.488281 38.917969 L 36.722656 39.234375 L 36.722656 39.777344 C 36.722656 40.417969 36.222656 40.910156 35.589844 40.910156 L 21.996094 40.910156 C 21.355469 40.910156 20.859375 40.417969 20.859375 39.777344 L 20.859375 20.285156 C 20.859375 19.652344 21.355469 19.152344 21.996094 19.152344 L 35.589844 19.152344 C 36.222656 19.152344 36.722656 19.652344 36.722656 20.285156 L 36.722656 34.386719 L 37.488281 33.574219 L 37.488281 20.285156 C 37.488281 19.238281 36.636719 18.386719 35.589844 18.386719 Z M 37.488281 34.800781 L 36.796875 35.542969 L 37.488281 36.1875 Z M 36.722656 37.113281 L 36.722656 38.324219 L 36.777344 38.296875 L 37.246094 38.109375 L 37.488281 38.003906 L 37.488281 37.839844 Z M 36.722656 37.113281 "/>
<path style=" stroke:none;fill-rule:evenodd;fill:rgb(33.333333%,33.333333%,33.333333%);fill-opacity:1;" d="M 23.183594 21.9375 C 22.980469 21.957031 22.828125 22.136719 22.839844 22.339844 C 22.847656 22.546875 23.027344 22.707031 23.230469 22.707031 L 34.347656 22.707031 C 34.5 22.714844 34.628906 22.640625 34.707031 22.519531 C 34.78125 22.394531 34.78125 22.238281 34.707031 22.113281 C 34.628906 21.996094 34.5 21.925781 34.347656 21.9375 L 23.230469 21.9375 C 23.214844 21.9375 23.203125 21.9375 23.183594 21.9375 Z M 23.183594 21.9375 "/>
<path style=" stroke:none;fill-rule:evenodd;fill:rgb(33.333333%,33.333333%,33.333333%);fill-opacity:1;" d="M 23.230469 24.46875 C 23.015625 24.46875 22.847656 24.636719 22.847656 24.855469 C 22.847656 25.058594 23.015625 25.238281 23.230469 25.238281 L 34.359375 25.238281 C 34.566406 25.238281 34.746094 25.058594 34.746094 24.855469 C 34.746094 24.636719 34.566406 24.46875 34.359375 24.46875 Z M 23.230469 24.46875 "/>
<path style=" stroke:none;fill-rule:evenodd;fill:rgb(33.333333%,33.333333%,33.333333%);fill-opacity:1;" d="M 23.230469 27.074219 C 23.015625 27.074219 22.847656 27.253906 22.847656 27.457031 C 22.847656 27.675781 23.015625 27.84375 23.230469 27.84375 L 34.359375 27.84375 C 34.566406 27.84375 34.746094 27.675781 34.746094 27.457031 C 34.746094 27.253906 34.566406 27.074219 34.359375 27.074219 Z M 23.230469 27.074219 "/>
<path style=" stroke:none;fill-rule:evenodd;fill:rgb(33.333333%,33.333333%,33.333333%);fill-opacity:1;" d="M 23.230469 29.605469 C 23.015625 29.605469 22.847656 29.785156 22.847656 29.988281 C 22.847656 30.207031 23.015625 30.375 23.230469 30.375 L 34.359375 30.375 C 34.566406 30.375 34.746094 30.207031 34.746094 29.988281 C 34.746094 29.785156 34.566406 29.605469 34.359375 29.605469 Z M 23.230469 29.605469 "/>
<path style=" stroke:none;fill-rule:evenodd;fill:rgb(33.333333%,33.333333%,33.333333%);fill-opacity:1;" d="M 23.230469 32.136719 C 23.015625 32.136719 22.847656 32.308594 22.847656 32.519531 C 22.847656 32.738281 23.015625 32.90625 23.230469 32.90625 L 34.359375 32.90625 C 34.566406 32.90625 34.746094 32.738281 34.746094 32.519531 C 34.746094 32.308594 34.566406 32.136719 34.359375 32.136719 Z M 23.230469 32.136719 "/>
<path style=" stroke:none;fill-rule:evenodd;fill:rgb(33.333333%,33.333333%,33.333333%);fill-opacity:1;" d="M 23.230469 34.753906 C 23.015625 34.753906 22.847656 34.921875 22.847656 35.136719 C 22.847656 35.355469 23.015625 35.519531 23.230469 35.519531 L 34.359375 35.519531 C 34.566406 35.519531 34.746094 35.355469 34.746094 35.136719 C 34.746094 34.921875 34.566406 34.753906 34.359375 34.753906 Z M 23.230469 34.753906 "/>
<path style=" stroke:none;fill-rule:evenodd;fill:rgb(33.333333%,33.333333%,33.333333%);fill-opacity:1;" d="M 23.230469 37.285156 C 23.015625 37.285156 22.847656 37.453125 22.847656 37.667969 C 22.847656 37.875 23.015625 38.050781 23.230469 38.050781 L 34.359375 38.050781 C 34.566406 38.050781 34.746094 37.875 34.746094 37.667969 C 34.746094 37.453125 34.566406 37.285156 34.359375 37.285156 Z M 23.230469 37.285156 "/>
<path style=" stroke:none;fill-rule:nonzero;fill:rgb(33.333333%,33.333333%,33.333333%);fill-opacity:1;" d="M 41.871094 29.683594 C 41.777344 29.671875 41.691406 29.699219 41.625 29.765625 L 41.390625 30.019531 L 43.800781 32.277344 L 44.035156 32.027344 C 44.128906 31.921875 44.128906 31.753906 44.015625 31.652344 L 42.011719 29.753906 C 41.964844 29.71875 41.917969 29.691406 41.871094 29.683594 Z M 41.144531 30.269531 L 36.207031 35.53125 L 38.605469 37.792969 L 43.546875 32.542969 Z M 35.964844 35.785156 L 35.730469 36.035156 C 35.625 36.140625 35.625 36.308594 35.738281 36.410156 L 37.753906 38.308594 C 37.855469 38.410156 38.027344 38.410156 38.128906 38.296875 L 38.363281 38.050781 Z M 35.964844 35.785156 "/>
<path style=" stroke:none;fill-rule:nonzero;fill:rgb(33.333333%,33.333333%,33.333333%);fill-opacity:1;" d="M 34.761719 39.46875 C 34.6875 39.394531 34.78125 39.152344 34.78125 39.152344 L 34.941406 38.671875 L 35.109375 38.203125 L 35.269531 37.722656 L 35.4375 37.246094 L 35.597656 36.769531 L 35.933594 35.8125 L 36.234375 36.105469 L 37.433594 37.230469 L 37.734375 37.519531 L 38.332031 38.082031 L 37.875 38.277344 L 37.40625 38.464844 L 36.9375 38.660156 L 36.480469 38.847656 L 35.542969 39.246094 L 35.082031 39.433594 C 35.082031 39.433594 34.839844 39.542969 34.761719 39.46875 Z M 34.761719 39.46875 "/>
<path style=" stroke:none;fill-rule:nonzero;fill:rgb(33.333333%,33.333333%,33.333333%);fill-opacity:1;" d="M 41.859375 29.707031 C 41.777344 29.699219 41.691406 29.730469 41.625 29.792969 L 41.390625 30.046875 L 43.800781 32.308594 L 44.035156 32.050781 C 44.136719 31.949219 44.128906 31.78125 44.015625 31.675781 L 42.011719 29.785156 C 41.964844 29.746094 41.917969 29.71875 41.859375 29.707031 Z M 41.144531 30.300781 L 36.207031 35.558594 L 38.605469 37.816406 L 43.558594 32.566406 Z M 35.964844 35.8125 L 35.933594 35.847656 L 35.730469 36.066406 C 35.625 36.167969 35.636719 36.328125 35.730469 36.433594 L 35.597656 36.796875 L 35.4375 37.277344 L 35.269531 37.753906 L 35.109375 38.230469 L 34.941406 38.699219 L 34.769531 39.175781 C 34.769531 39.175781 34.6875 39.421875 34.761719 39.496094 C 34.839844 39.574219 35.082031 39.457031 35.082031 39.457031 L 35.542969 39.269531 L 36.011719 39.074219 L 36.480469 38.886719 L 36.9375 38.691406 L 37.40625 38.496094 L 37.761719 38.34375 C 37.875 38.4375 38.035156 38.425781 38.128906 38.324219 L 38.332031 38.109375 L 38.363281 38.082031 Z M 35.964844 35.8125 "/>
</g>
</svg>
